# xmcd
#
# Track frame offsets:
#	150
#	18920
#	36875
#	52427
#	71110
#	90558
#	103573
#	118086
#	134581
#	152468
#	166573
#	183576
#	200833
#	214390
#
# Disc length: 3090
#
# Revision: 3
# Processed by: cddbd v1.5.1PL0 Copyright (c) Steve Scherf et al.
# Submitted via: audiograbber 1.80.04
# Normalized: r2:DSETVAR1
#
DISCID=cd0c100e
DTITLE=Various Artist - Hot Hits Country Vol. 69
DYEAR=1997
DGENRE=Country
TTITLE0=Alabama - Dancin Shaggin On The Boulevard
TTITLE1=Alan Jackson - There Goes
TTITLE2=Vince Gill - You And You Alone
TTITLE3=Travis Tritt w - Lari White
TTITLE4=Billy Ray Cyrus - It's All the Same To Me
TTITLE5=Lorrie Morgan - Go Away
TTITLE6=Burnin Daylight - Live To Love Again
TTITLE7=Tanya Tucker - Ridin Out The Heartache
TTITLE8=Joe Diffie - Somethin Like This
TTITLE9=Kippi Brannon - I'd Be With You
TTITLE10=Tammy Graham - Cool Water
TTITLE11=Sara Evans - Three Chords And The Truth
TTITLE12=Dwight Yoakam - Claudette
TTITLE13=Chely Wright - Shout Up And Drive
EXTD=
EXTT0=
EXTT1=
EXTT2=
EXTT3=
EXTT4=
EXTT5=
EXTT6=
EXTT7=
EXTT8=
EXTT9=
EXTT10=
EXTT11=
EXTT12=
EXTT13=
PLAYORDER=
